<svg width="1200" height="420" viewBox="0 0 1200 420" fill="none" xmlns="http://www.w3.org/2000/svg">
  <defs>
    <linearGradient id="g1" x1="80" y1="70" x2="350" y2="340" gradientUnits="userSpaceOnUse">
      <stop offset="0" stop-color="#00D4FF"/>
      <stop offset="0.52" stop-color="#006DFF"/>
      <stop offset="1" stop-color="#6C4DFF"/>
    </linearGradient>
    <linearGradient id="g2" x1="122" y1="104" x2="309" y2="306" gradientUnits="userSpaceOnUse">
      <stop offset="0" stop-color="#FFFFFF"/>
      <stop offset="1" stop-color="#CFF6FF"/>
    </linearGradient>
    <filter id="shadow" x="30" y="30" width="360" height="360" filterUnits="userSpaceOnUse" color-interpolation-filters="sRGB">
      <feDropShadow dx="0" dy="20" stdDeviation="22" flood-color="#113A73" flood-opacity="0.22"/>
    </filter>
  </defs>

  <!-- Icon -->
  <g filter="url(#shadow)">
    <rect x="90" y="70" width="280" height="280" rx="72" fill="url(#g1)"/>
    <path d="M294 143C315.539 143 333 160.461 333 182V214C333 235.539 315.539 253 294 253H260.5L223 289V253H178C156.461 253 139 235.539 139 214V182C139 160.461 156.461 143 178 143H294Z" fill="white" fill-opacity="0.18"/>
    <path d="M156 281V139C156 130.716 162.716 124 171 124H186.8C191.861 124 196.583 126.552 199.351 130.789L279 252.5V139C279 130.716 285.716 124 294 124H306V281H290.2C285.139 281 280.417 278.448 277.649 274.211L198 152.5V281H156Z" fill="url(#g2)"/>
    <circle cx="309" cy="111" r="10" fill="#FFFFFF"/>
    <circle cx="327" cy="130" r="5" fill="#DFFBFF" fill-opacity="0.9"/>
  </g>

  <!-- Wordmark -->
  <text x="425" y="210" font-family="Inter, Segoe UI, Arial, sans-serif" font-size="86" font-weight="800" letter-spacing="-2.5" fill="#0D1B2A">Next</text>
  <text x="635" y="210" font-family="Inter, Segoe UI, Arial, sans-serif" font-size="86" font-weight="800" letter-spacing="-2.5" fill="#006DFF">Assist</text>
  <text x="431" y="263" font-family="Inter, Segoe UI, Arial, sans-serif" font-size="28" font-weight="500" letter-spacing="0.3" fill="#637083">Atendimento inteligente para negócios</text>
</svg>
